<mxfile host="app.diagrams.net" agent="Mozilla/5.0 (Windows NT 10.0; Win64; x64) AppleWebKit/537.36 (KHTML, like Gecko) Chrome/138.0.0.0 Safari/537.36" version="28.0.7">
  <diagram name="Page-1" id="LJ57rDY8PPAGXpahhUKY">
    <mxGraphModel dx="4918" dy="1288" grid="1" gridSize="10" guides="1" tooltips="1" connect="1" arrows="1" fold="1" page="1" pageScale="1" pageWidth="850" pageHeight="1100" background="#ffffff" math="0" shadow="0">
      <root>
        <mxCell id="0" />
        <mxCell id="1" parent="0" />
        <mxCell id="321F_N1XVPpt7X5Ty1k3-1" value="&lt;div&gt;&lt;font face=&quot;Lucida Console&quot; style=&quot;font-size: 20px;&quot;&gt;Appointment&lt;/font&gt;&lt;/div&gt;&lt;div&gt;&lt;font face=&quot;Lucida Console&quot;&gt;&lt;br&gt;&lt;/font&gt;&lt;/div&gt;" style="whiteSpace=wrap;html=1;align=center;labelBackgroundColor=none;" vertex="1" parent="1">
          <mxGeometry x="430" y="367.5" width="135" height="70" as="geometry" />
        </mxCell>
        <mxCell id="321F_N1XVPpt7X5Ty1k3-2" value="&lt;u&gt;&lt;font face=&quot;Lucida Console&quot;&gt;appointment_id&lt;/font&gt;&lt;/u&gt;" style="ellipse;whiteSpace=wrap;html=1;align=center;labelBackgroundColor=none;" vertex="1" parent="1">
          <mxGeometry x="615" y="385" width="110" height="35" as="geometry" />
        </mxCell>
        <mxCell id="321F_N1XVPpt7X5Ty1k3-3" value="&lt;u&gt;&lt;font face=&quot;Lucida Console&quot;&gt;patient_id&lt;/font&gt;&lt;/u&gt;" style="ellipse;whiteSpace=wrap;html=1;align=center;labelBackgroundColor=none;" vertex="1" parent="1">
          <mxGeometry x="395" y="270" width="100" height="35" as="geometry" />
        </mxCell>
        <mxCell id="321F_N1XVPpt7X5Ty1k3-4" value="&lt;font face=&quot;Lucida Console&quot;&gt;&lt;u&gt;staff_id&lt;/u&gt;&lt;/font&gt;" style="ellipse;whiteSpace=wrap;html=1;align=center;labelBackgroundColor=none;" vertex="1" parent="1">
          <mxGeometry x="280" y="385" width="100" height="35" as="geometry" />
        </mxCell>
        <mxCell id="321F_N1XVPpt7X5Ty1k3-5" value="" style="line;strokeWidth=1;rotatable=0;dashed=0;labelPosition=right;align=left;verticalAlign=middle;spacingTop=0;spacingLeft=6;points=[];portConstraint=eastwest;labelBackgroundColor=none;" vertex="1" parent="1">
          <mxGeometry x="565" y="397.5" width="55" height="10" as="geometry" />
        </mxCell>
        <mxCell id="321F_N1XVPpt7X5Ty1k3-6" value="" style="line;strokeWidth=1;rotatable=0;dashed=0;labelPosition=right;align=left;verticalAlign=middle;spacingTop=0;spacingLeft=6;points=[];portConstraint=eastwest;direction=south;labelBackgroundColor=none;" vertex="1" parent="1">
          <mxGeometry x="445" y="307.5" width="10" height="60" as="geometry" />
        </mxCell>
        <mxCell id="321F_N1XVPpt7X5Ty1k3-7" value="" style="line;strokeWidth=1;rotatable=0;dashed=0;labelPosition=right;align=left;verticalAlign=middle;spacingTop=0;spacingLeft=6;points=[];portConstraint=eastwest;labelBackgroundColor=none;" vertex="1" parent="1">
          <mxGeometry x="380" y="397.5" width="50" height="10" as="geometry" />
        </mxCell>
        <mxCell id="321F_N1XVPpt7X5Ty1k3-8" value="&lt;font face=&quot;Lucida Console&quot;&gt;appointment_date&lt;/font&gt;" style="ellipse;whiteSpace=wrap;html=1;align=center;labelBackgroundColor=none;" vertex="1" parent="1">
          <mxGeometry x="360" y="490" width="120" height="35" as="geometry" />
        </mxCell>
        <mxCell id="321F_N1XVPpt7X5Ty1k3-9" value="&lt;font face=&quot;Lucida Console&quot;&gt;appointment_time&lt;/font&gt;" style="ellipse;whiteSpace=wrap;html=1;align=center;labelBackgroundColor=none;" vertex="1" parent="1">
          <mxGeometry x="520" y="490" width="120" height="35" as="geometry" />
        </mxCell>
        <mxCell id="321F_N1XVPpt7X5Ty1k3-10" value="&lt;font face=&quot;Lucida Console&quot;&gt;status&lt;/font&gt;" style="ellipse;whiteSpace=wrap;html=1;align=center;labelBackgroundColor=none;" vertex="1" parent="1">
          <mxGeometry x="530" y="300" width="100" height="40" as="geometry" />
        </mxCell>
        <mxCell id="321F_N1XVPpt7X5Ty1k3-11" value="&lt;font style=&quot;font-size: 20px;&quot; face=&quot;Lucida Console&quot;&gt;Hospital_bill&lt;/font&gt;" style="whiteSpace=wrap;html=1;align=center;" vertex="1" parent="1">
          <mxGeometry x="-230" y="347.5" width="160" height="40" as="geometry" />
        </mxCell>
        <mxCell id="321F_N1XVPpt7X5Ty1k3-12" value="&lt;font face=&quot;Lucida Console&quot;&gt;bill id&lt;/font&gt;" style="ellipse;whiteSpace=wrap;html=1;align=center;fontStyle=4;" vertex="1" parent="1">
          <mxGeometry x="-370" y="345" width="100" height="35" as="geometry" />
        </mxCell>
        <mxCell id="321F_N1XVPpt7X5Ty1k3-13" value="&lt;u&gt;&lt;font face=&quot;Lucida Console&quot;&gt;patient_id&lt;/font&gt;&lt;/u&gt;" style="ellipse;whiteSpace=wrap;html=1;align=center;" vertex="1" parent="1">
          <mxGeometry x="-255" y="435" width="100" height="35" as="geometry" />
        </mxCell>
        <mxCell id="321F_N1XVPpt7X5Ty1k3-14" value="&lt;font face=&quot;Lucida Console&quot;&gt;amount&lt;/font&gt;" style="ellipse;whiteSpace=wrap;html=1;align=center;" vertex="1" parent="1">
          <mxGeometry x="-10" y="350" width="100" height="35" as="geometry" />
        </mxCell>
        <mxCell id="321F_N1XVPpt7X5Ty1k3-15" value="payment status" style="ellipse;whiteSpace=wrap;html=1;align=center;" vertex="1" parent="1">
          <mxGeometry x="-145" y="435" width="100" height="35" as="geometry" />
        </mxCell>
        <mxCell id="321F_N1XVPpt7X5Ty1k3-16" value="&lt;font face=&quot;Lucida Console&quot;&gt;bill_date&lt;/font&gt;" style="ellipse;whiteSpace=wrap;html=1;align=center;" vertex="1" parent="1">
          <mxGeometry x="-210" y="250" width="100" height="35" as="geometry" />
        </mxCell>
        <mxCell id="321F_N1XVPpt7X5Ty1k3-17" value="" style="line;strokeWidth=1;rotatable=0;dashed=0;labelPosition=right;align=left;verticalAlign=middle;spacingTop=0;spacingLeft=6;points=[];portConstraint=eastwest;" vertex="1" parent="1">
          <mxGeometry x="-70" y="362.5" width="60" height="10" as="geometry" />
        </mxCell>
        <mxCell id="321F_N1XVPpt7X5Ty1k3-18" value="" style="line;strokeWidth=1;rotatable=0;dashed=0;labelPosition=right;align=left;verticalAlign=middle;spacingTop=0;spacingLeft=6;points=[];portConstraint=eastwest;" vertex="1" parent="1">
          <mxGeometry x="-270" y="357.5" width="40" height="10" as="geometry" />
        </mxCell>
        <mxCell id="321F_N1XVPpt7X5Ty1k3-19" value="" style="line;strokeWidth=1;rotatable=0;dashed=0;labelPosition=right;align=left;verticalAlign=middle;spacingTop=0;spacingLeft=6;points=[];portConstraint=eastwest;direction=south;" vertex="1" parent="1">
          <mxGeometry x="-165" y="285" width="10" height="60" as="geometry" />
        </mxCell>
        <mxCell id="321F_N1XVPpt7X5Ty1k3-20" value="" style="endArrow=none;html=1;rounded=0;" edge="1" parent="1">
          <mxGeometry width="50" height="50" relative="1" as="geometry">
            <mxPoint x="-220" y="435" as="sourcePoint" />
            <mxPoint x="-170" y="385" as="targetPoint" />
          </mxGeometry>
        </mxCell>
        <mxCell id="321F_N1XVPpt7X5Ty1k3-21" value="" style="endArrow=none;html=1;rounded=0;" edge="1" parent="1">
          <mxGeometry width="50" height="50" relative="1" as="geometry">
            <mxPoint x="-95" y="435" as="sourcePoint" />
            <mxPoint x="-145" y="385" as="targetPoint" />
          </mxGeometry>
        </mxCell>
        <mxCell id="321F_N1XVPpt7X5Ty1k3-22" value="" style="endArrow=none;html=1;rounded=0;" edge="1" parent="1">
          <mxGeometry width="50" height="50" relative="1" as="geometry">
            <mxPoint x="420" y="487.5" as="sourcePoint" />
            <mxPoint x="470" y="437.5" as="targetPoint" />
          </mxGeometry>
        </mxCell>
        <mxCell id="321F_N1XVPpt7X5Ty1k3-23" value="" style="endArrow=none;html=1;rounded=0;" edge="1" parent="1">
          <mxGeometry width="50" height="50" relative="1" as="geometry">
            <mxPoint x="530" y="437.5" as="sourcePoint" />
            <mxPoint x="580" y="487.5" as="targetPoint" />
          </mxGeometry>
        </mxCell>
        <mxCell id="321F_N1XVPpt7X5Ty1k3-24" value="" style="endArrow=none;html=1;rounded=0;" edge="1" parent="1">
          <mxGeometry width="50" height="50" relative="1" as="geometry">
            <mxPoint x="540" y="367.5" as="sourcePoint" />
            <mxPoint x="580" y="335" as="targetPoint" />
          </mxGeometry>
        </mxCell>
        <mxCell id="321F_N1XVPpt7X5Ty1k3-25" value="&lt;font face=&quot;Lucida Console&quot; style=&quot;font-size: 20px;&quot;&gt;Medicine&lt;/font&gt;" style="whiteSpace=wrap;html=1;align=center;" vertex="1" parent="1">
          <mxGeometry x="-970.5" y="710" width="120" height="70" as="geometry" />
        </mxCell>
        <mxCell id="321F_N1XVPpt7X5Ty1k3-26" value="&lt;font face=&quot;Lucida Console&quot;&gt;medicine_id&lt;/font&gt;" style="ellipse;whiteSpace=wrap;html=1;align=center;fontStyle=4;" vertex="1" parent="1">
          <mxGeometry x="-750.5" y="740" width="100" height="40" as="geometry" />
        </mxCell>
        <mxCell id="321F_N1XVPpt7X5Ty1k3-27" value="" style="endArrow=none;html=1;rounded=0;exitX=1;exitY=1;exitDx=0;exitDy=0;entryX=0;entryY=0.286;entryDx=0;entryDy=0;entryPerimeter=0;" edge="1" parent="1" source="321F_N1XVPpt7X5Ty1k3-25" target="321F_N1XVPpt7X5Ty1k3-28">
          <mxGeometry relative="1" as="geometry">
            <mxPoint x="-820.5" y="840" as="sourcePoint" />
            <mxPoint x="-750.5" y="680" as="targetPoint" />
          </mxGeometry>
        </mxCell>
        <mxCell id="321F_N1XVPpt7X5Ty1k3-28" value="&lt;div&gt;&lt;font face=&quot;Lucida Console&quot;&gt;name&lt;/font&gt;&lt;/div&gt;" style="ellipse;whiteSpace=wrap;html=1;align=center;" vertex="1" parent="1">
          <mxGeometry x="-740.5" y="795" width="100" height="35" as="geometry" />
        </mxCell>
        <mxCell id="321F_N1XVPpt7X5Ty1k3-29" value="" style="endArrow=none;html=1;rounded=0;exitX=0.833;exitY=1;exitDx=0;exitDy=0;exitPerimeter=0;" edge="1" parent="1" source="321F_N1XVPpt7X5Ty1k3-25" target="321F_N1XVPpt7X5Ty1k3-30">
          <mxGeometry relative="1" as="geometry">
            <mxPoint x="-854.5" y="644" as="sourcePoint" />
            <mxPoint x="-770.5" y="730" as="targetPoint" />
          </mxGeometry>
        </mxCell>
        <mxCell id="321F_N1XVPpt7X5Ty1k3-30" value="&lt;font face=&quot;Lucida Console&quot;&gt;quantity&lt;/font&gt;" style="ellipse;whiteSpace=wrap;html=1;align=center;" vertex="1" parent="1">
          <mxGeometry x="-820.5" y="830" width="100" height="40" as="geometry" />
        </mxCell>
        <mxCell id="321F_N1XVPpt7X5Ty1k3-31" value="" style="endArrow=none;html=1;rounded=0;entryX=0;entryY=0.5;entryDx=0;entryDy=0;exitX=1;exitY=0.357;exitDx=0;exitDy=0;exitPerimeter=0;" edge="1" parent="1" source="321F_N1XVPpt7X5Ty1k3-25" target="321F_N1XVPpt7X5Ty1k3-26">
          <mxGeometry relative="1" as="geometry">
            <mxPoint x="-860.5" y="735" as="sourcePoint" />
            <mxPoint x="-650.5" y="840" as="targetPoint" />
          </mxGeometry>
        </mxCell>
        <mxCell id="321F_N1XVPpt7X5Ty1k3-32" value="" style="endArrow=none;html=1;rounded=0;exitX=0.975;exitY=0.157;exitDx=0;exitDy=0;exitPerimeter=0;" edge="1" parent="1" source="321F_N1XVPpt7X5Ty1k3-25">
          <mxGeometry relative="1" as="geometry">
            <mxPoint x="-870.5" y="840" as="sourcePoint" />
            <mxPoint x="-756.3555280004116" y="707.3041844308227" as="targetPoint" />
          </mxGeometry>
        </mxCell>
        <mxCell id="321F_N1XVPpt7X5Ty1k3-33" value="&lt;font face=&quot;Lucida Console&quot;&gt;price_per_unit&lt;/font&gt;" style="ellipse;whiteSpace=wrap;html=1;align=center;" vertex="1" parent="1">
          <mxGeometry x="-760.5" y="680" width="120" height="40" as="geometry" />
        </mxCell>
        <mxCell id="321F_N1XVPpt7X5Ty1k3-34" value="" style="endArrow=none;html=1;rounded=0;exitX=0.7;exitY=1.029;exitDx=0;exitDy=0;exitPerimeter=0;" edge="1" parent="1" source="321F_N1XVPpt7X5Ty1k3-25" target="321F_N1XVPpt7X5Ty1k3-35">
          <mxGeometry relative="1" as="geometry">
            <mxPoint x="-910.5" y="840" as="sourcePoint" />
            <mxPoint x="-820.5" y="890" as="targetPoint" />
          </mxGeometry>
        </mxCell>
        <mxCell id="321F_N1XVPpt7X5Ty1k3-35" value="&lt;font face=&quot;Lucida Console&quot;&gt;expiry_date&lt;/font&gt;" style="ellipse;whiteSpace=wrap;html=1;align=center;" vertex="1" parent="1">
          <mxGeometry x="-940" y="870" width="100" height="40" as="geometry" />
        </mxCell>
        <mxCell id="321F_N1XVPpt7X5Ty1k3-36" value="&lt;font style=&quot;font-size: 20px;&quot; face=&quot;Lucida Console&quot;&gt;Pharmacy_Bill&lt;/font&gt;" style="whiteSpace=wrap;html=1;align=center;" vertex="1" parent="1">
          <mxGeometry x="-880" y="355" width="215" height="70" as="geometry" />
        </mxCell>
        <mxCell id="321F_N1XVPpt7X5Ty1k3-37" value="&lt;font face=&quot;Lucida Console&quot;&gt;issue_id&lt;/font&gt;" style="ellipse;whiteSpace=wrap;html=1;align=center;fontStyle=4;" vertex="1" parent="1">
          <mxGeometry x="-1050" y="240" width="100" height="40" as="geometry" />
        </mxCell>
        <mxCell id="321F_N1XVPpt7X5Ty1k3-38" value="" style="endArrow=none;html=1;rounded=0;entryX=0;entryY=0;entryDx=0;entryDy=0;" edge="1" parent="1" source="321F_N1XVPpt7X5Ty1k3-37" target="321F_N1XVPpt7X5Ty1k3-36">
          <mxGeometry relative="1" as="geometry">
            <mxPoint x="-960.4999999999995" y="371.50999999999976" as="sourcePoint" />
            <mxPoint x="-867.5" y="397.5" as="targetPoint" />
          </mxGeometry>
        </mxCell>
        <mxCell id="321F_N1XVPpt7X5Ty1k3-39" value="medicine_id" style="ellipse;whiteSpace=wrap;html=1;align=center;" vertex="1" parent="1">
          <mxGeometry x="-840" y="245" width="100" height="35" as="geometry" />
        </mxCell>
        <mxCell id="321F_N1XVPpt7X5Ty1k3-40" value="" style="endArrow=none;html=1;rounded=0;exitX=1;exitY=1;exitDx=0;exitDy=0;entryX=0;entryY=0.25;entryDx=0;entryDy=0;" edge="1" parent="1" source="321F_N1XVPpt7X5Ty1k3-41" target="321F_N1XVPpt7X5Ty1k3-36">
          <mxGeometry relative="1" as="geometry">
            <mxPoint x="-986.0950000000003" y="409.7751371575108" as="sourcePoint" />
            <mxPoint x="-919.9969469178418" y="357.4999999999998" as="targetPoint" />
          </mxGeometry>
        </mxCell>
        <mxCell id="321F_N1XVPpt7X5Ty1k3-41" value="&lt;font face=&quot;Lucida Console&quot;&gt;quantity&lt;/font&gt;_issued" style="ellipse;whiteSpace=wrap;html=1;align=center;" vertex="1" parent="1">
          <mxGeometry x="-1110" y="295" width="135" height="40" as="geometry" />
        </mxCell>
        <mxCell id="321F_N1XVPpt7X5Ty1k3-42" value="" style="endArrow=none;html=1;rounded=0;exitX=0.5;exitY=1;exitDx=0;exitDy=0;entryX=0.558;entryY=0.022;entryDx=0;entryDy=0;entryPerimeter=0;" edge="1" parent="1" source="321F_N1XVPpt7X5Ty1k3-39" target="321F_N1XVPpt7X5Ty1k3-36">
          <mxGeometry relative="1" as="geometry">
            <mxPoint x="-810.5" y="300" as="sourcePoint" />
            <mxPoint x="-760" y="350" as="targetPoint" />
          </mxGeometry>
        </mxCell>
        <mxCell id="321F_N1XVPpt7X5Ty1k3-43" value="" style="endArrow=none;html=1;rounded=0;exitX=0.5;exitY=1;exitDx=0;exitDy=0;entryX=0.852;entryY=0.007;entryDx=0;entryDy=0;entryPerimeter=0;" edge="1" parent="1" source="321F_N1XVPpt7X5Ty1k3-44" target="321F_N1XVPpt7X5Ty1k3-36">
          <mxGeometry relative="1" as="geometry">
            <mxPoint x="-936.5250000000004" y="357.50175057636915" as="sourcePoint" />
            <mxPoint x="-865.4483919092244" y="370.92000000000013" as="targetPoint" />
            <Array as="points" />
          </mxGeometry>
        </mxCell>
        <mxCell id="321F_N1XVPpt7X5Ty1k3-44" value="&lt;font face=&quot;Lucida Console&quot;&gt;patient_id&lt;/font&gt;" style="ellipse;whiteSpace=wrap;html=1;align=center;" vertex="1" parent="1">
          <mxGeometry x="-750.5" y="190" width="120" height="40" as="geometry" />
        </mxCell>
        <mxCell id="321F_N1XVPpt7X5Ty1k3-45" value="" style="endArrow=none;html=1;rounded=0;exitX=0.7;exitY=1.029;exitDx=0;exitDy=0;exitPerimeter=0;" edge="1" parent="1">
          <mxGeometry relative="1" as="geometry">
            <mxPoint x="-890" y="259.53" as="sourcePoint" />
            <mxPoint x="-839.9018906356805" y="357.49676420759613" as="targetPoint" />
          </mxGeometry>
        </mxCell>
        <mxCell id="321F_N1XVPpt7X5Ty1k3-46" value="&lt;font face=&quot;Lucida Console&quot;&gt;issue_date&lt;/font&gt;" style="ellipse;whiteSpace=wrap;html=1;align=center;" vertex="1" parent="1">
          <mxGeometry x="-950" y="230" width="100" height="40" as="geometry" />
        </mxCell>
        <mxCell id="321F_N1XVPpt7X5Ty1k3-47" value="&lt;font style=&quot;font-size: 20px;&quot; face=&quot;Lucida Console&quot;&gt;Lab_Test&lt;/font&gt;" style="whiteSpace=wrap;html=1;align=center;" vertex="1" parent="1">
          <mxGeometry x="870" y="1187.5" width="120" height="70" as="geometry" />
        </mxCell>
        <mxCell id="321F_N1XVPpt7X5Ty1k3-48" value="&lt;font face=&quot;Lucida Console&quot;&gt;test_id&lt;/font&gt;" style="ellipse;whiteSpace=wrap;html=1;align=center;fontStyle=4;" vertex="1" parent="1">
          <mxGeometry x="1090" y="1217.5" width="100" height="40" as="geometry" />
        </mxCell>
        <mxCell id="321F_N1XVPpt7X5Ty1k3-49" value="" style="endArrow=none;html=1;rounded=0;exitX=1;exitY=1;exitDx=0;exitDy=0;entryX=0;entryY=0.286;entryDx=0;entryDy=0;entryPerimeter=0;" edge="1" parent="1" source="321F_N1XVPpt7X5Ty1k3-47">
          <mxGeometry relative="1" as="geometry">
            <mxPoint x="1020" y="1317.5" as="sourcePoint" />
            <mxPoint x="1099.9999999999995" y="1282.51" as="targetPoint" />
          </mxGeometry>
        </mxCell>
        <mxCell id="321F_N1XVPpt7X5Ty1k3-50" value="cost" style="ellipse;whiteSpace=wrap;html=1;align=center;" vertex="1" parent="1">
          <mxGeometry x="1090" y="1272.5" width="100" height="35" as="geometry" />
        </mxCell>
        <mxCell id="321F_N1XVPpt7X5Ty1k3-51" value="" style="endArrow=none;html=1;rounded=0;entryX=0;entryY=0.5;entryDx=0;entryDy=0;exitX=1;exitY=0.357;exitDx=0;exitDy=0;exitPerimeter=0;" edge="1" parent="1" source="321F_N1XVPpt7X5Ty1k3-47" target="321F_N1XVPpt7X5Ty1k3-48">
          <mxGeometry relative="1" as="geometry">
            <mxPoint x="980" y="1212.5" as="sourcePoint" />
            <mxPoint x="1190" y="1317.5" as="targetPoint" />
          </mxGeometry>
        </mxCell>
        <mxCell id="321F_N1XVPpt7X5Ty1k3-52" value="" style="endArrow=none;html=1;rounded=0;exitX=0.975;exitY=0.157;exitDx=0;exitDy=0;exitPerimeter=0;" edge="1" parent="1" source="321F_N1XVPpt7X5Ty1k3-47" target="321F_N1XVPpt7X5Ty1k3-53">
          <mxGeometry relative="1" as="geometry">
            <mxPoint x="970" y="1317.5" as="sourcePoint" />
            <mxPoint x="1100" y="1177.5" as="targetPoint" />
          </mxGeometry>
        </mxCell>
        <mxCell id="321F_N1XVPpt7X5Ty1k3-53" value="&lt;font face=&quot;Lucida Console&quot;&gt;name&lt;/font&gt;" style="ellipse;whiteSpace=wrap;html=1;align=center;" vertex="1" parent="1">
          <mxGeometry x="1080" y="1157.5" width="120" height="40" as="geometry" />
        </mxCell>
        <mxCell id="321F_N1XVPpt7X5Ty1k3-71" value="&lt;font style=&quot;font-size: 20px;&quot; face=&quot;Lucida Console&quot;&gt;Test-result&lt;/font&gt;" style="whiteSpace=wrap;html=1;align=center;" vertex="1" parent="1">
          <mxGeometry x="-5" y="1150" width="150" height="70" as="geometry" />
        </mxCell>
        <mxCell id="321F_N1XVPpt7X5Ty1k3-72" style="edgeStyle=orthogonalEdgeStyle;rounded=0;orthogonalLoop=1;jettySize=auto;html=1;exitX=0.5;exitY=1;exitDx=0;exitDy=0;" edge="1" parent="1" source="321F_N1XVPpt7X5Ty1k3-71" target="321F_N1XVPpt7X5Ty1k3-71">
          <mxGeometry relative="1" as="geometry" />
        </mxCell>
        <mxCell id="321F_N1XVPpt7X5Ty1k3-73" value="&lt;font style=&quot;font-size: 12px;&quot; face=&quot;Lucida Console&quot;&gt;patient_id&lt;/font&gt;" style="ellipse;whiteSpace=wrap;html=1;align=center;fontStyle=4;" vertex="1" parent="1">
          <mxGeometry x="25" y="1480" width="80" height="35" as="geometry" />
        </mxCell>
        <mxCell id="321F_N1XVPpt7X5Ty1k3-74" value="" style="endArrow=none;html=1;rounded=0;entryX=0.5;entryY=1;entryDx=0;entryDy=0;" edge="1" parent="1" target="321F_N1XVPpt7X5Ty1k3-71">
          <mxGeometry relative="1" as="geometry">
            <mxPoint x="65" y="1480" as="sourcePoint" />
            <mxPoint x="75" y="1240" as="targetPoint" />
          </mxGeometry>
        </mxCell>
        <mxCell id="321F_N1XVPpt7X5Ty1k3-75" value="" style="endArrow=none;html=1;rounded=0;entryX=0.75;entryY=1;entryDx=0;entryDy=0;" edge="1" parent="1" target="321F_N1XVPpt7X5Ty1k3-71">
          <mxGeometry relative="1" as="geometry">
            <mxPoint x="155" y="1480" as="sourcePoint" />
            <mxPoint x="165" y="1320" as="targetPoint" />
            <Array as="points">
              <mxPoint x="145" y="1480" />
            </Array>
          </mxGeometry>
        </mxCell>
        <mxCell id="321F_N1XVPpt7X5Ty1k3-76" value="&lt;font face=&quot;Lucida Console&quot;&gt;result&lt;/font&gt;" style="ellipse;whiteSpace=wrap;html=1;align=center;" vertex="1" parent="1">
          <mxGeometry x="115" y="1480" width="90" height="35" as="geometry" />
        </mxCell>
        <mxCell id="321F_N1XVPpt7X5Ty1k3-77" value="&lt;font face=&quot;Lucida Console&quot;&gt;test_id&lt;/font&gt;" style="ellipse;whiteSpace=wrap;html=1;align=center;fontStyle=4;" vertex="1" parent="1">
          <mxGeometry x="215" y="1487.5" width="100" height="35" as="geometry" />
        </mxCell>
        <mxCell id="321F_N1XVPpt7X5Ty1k3-78" value="" style="endArrow=none;html=1;rounded=0;entryX=0.906;entryY=0.986;entryDx=0;entryDy=0;entryPerimeter=0;exitX=0.42;exitY=-0.075;exitDx=0;exitDy=0;exitPerimeter=0;" edge="1" parent="1" source="321F_N1XVPpt7X5Ty1k3-77" target="321F_N1XVPpt7X5Ty1k3-71">
          <mxGeometry relative="1" as="geometry">
            <mxPoint x="125" y="1460" as="sourcePoint" />
            <mxPoint x="285" y="1460" as="targetPoint" />
          </mxGeometry>
        </mxCell>
        <mxCell id="321F_N1XVPpt7X5Ty1k3-79" value="" style="endArrow=none;html=1;rounded=0;entryX=0.25;entryY=1;entryDx=0;entryDy=0;" edge="1" parent="1" target="321F_N1XVPpt7X5Ty1k3-71">
          <mxGeometry relative="1" as="geometry">
            <mxPoint x="-45" y="1480" as="sourcePoint" />
            <mxPoint x="165" y="1490" as="targetPoint" />
            <Array as="points" />
          </mxGeometry>
        </mxCell>
        <mxCell id="321F_N1XVPpt7X5Ty1k3-80" value="" style="resizable=0;html=1;whiteSpace=wrap;align=right;verticalAlign=bottom;" connectable="0" vertex="1" parent="321F_N1XVPpt7X5Ty1k3-79">
          <mxGeometry x="1" relative="1" as="geometry" />
        </mxCell>
        <mxCell id="321F_N1XVPpt7X5Ty1k3-81" style="edgeStyle=orthogonalEdgeStyle;rounded=0;orthogonalLoop=1;jettySize=auto;html=1;" edge="1" parent="1">
          <mxGeometry relative="1" as="geometry">
            <mxPoint x="-35" y="1480" as="targetPoint" />
            <mxPoint x="-45" y="1487.5" as="sourcePoint" />
          </mxGeometry>
        </mxCell>
        <mxCell id="321F_N1XVPpt7X5Ty1k3-82" value="&lt;font face=&quot;Lucida Console&quot;&gt;test_date&lt;/font&gt;" style="ellipse;whiteSpace=wrap;html=1;align=center;" vertex="1" parent="1">
          <mxGeometry x="-95" y="1480" width="100" height="35" as="geometry" />
        </mxCell>
        <mxCell id="321F_N1XVPpt7X5Ty1k3-83" value="&lt;font face=&quot;Lucida Console&quot;&gt;&lt;span style=&quot;font-size: 20px;&quot;&gt;Staff&lt;/span&gt;&lt;/font&gt;" style="whiteSpace=wrap;html=1;align=center;" vertex="1" parent="1">
          <mxGeometry x="295" y="845" width="150" height="70" as="geometry" />
        </mxCell>
        <mxCell id="321F_N1XVPpt7X5Ty1k3-84" style="edgeStyle=orthogonalEdgeStyle;rounded=0;orthogonalLoop=1;jettySize=auto;html=1;exitX=0.5;exitY=1;exitDx=0;exitDy=0;" edge="1" parent="1" source="321F_N1XVPpt7X5Ty1k3-83" target="321F_N1XVPpt7X5Ty1k3-83">
          <mxGeometry relative="1" as="geometry" />
        </mxCell>
        <mxCell id="321F_N1XVPpt7X5Ty1k3-85" value="&lt;font face=&quot;Lucida Console&quot;&gt;staff_id&lt;/font&gt;" style="ellipse;whiteSpace=wrap;html=1;align=center;fontStyle=4;" vertex="1" parent="1">
          <mxGeometry x="120" y="747.5" width="100" height="35" as="geometry" />
        </mxCell>
        <mxCell id="321F_N1XVPpt7X5Ty1k3-86" value="&lt;font face=&quot;Lucida Console&quot;&gt;role&lt;/font&gt;" style="ellipse;whiteSpace=wrap;html=1;align=center;" vertex="1" parent="1">
          <mxGeometry x="290" y="1015" width="100" height="35" as="geometry" />
        </mxCell>
        <mxCell id="321F_N1XVPpt7X5Ty1k3-87" value="&lt;font face=&quot;Lucida Console&quot;&gt;name&lt;/font&gt;" style="ellipse;whiteSpace=wrap;html=1;align=center;" vertex="1" parent="1">
          <mxGeometry x="70" y="960" width="100" height="35" as="geometry" />
        </mxCell>
        <mxCell id="321F_N1XVPpt7X5Ty1k3-88" value="&lt;font face=&quot;Lucida Console&quot;&gt;contact&lt;/font&gt;" style="ellipse;whiteSpace=wrap;html=1;align=center;" vertex="1" parent="1">
          <mxGeometry x="180" y="995" width="100" height="35" as="geometry" />
        </mxCell>
        <mxCell id="321F_N1XVPpt7X5Ty1k3-91" value="" style="endArrow=none;html=1;rounded=0;exitX=0.6;exitY=-0.029;exitDx=0;exitDy=0;exitPerimeter=0;entryX=0;entryY=1;entryDx=0;entryDy=0;" edge="1" parent="1" source="321F_N1XVPpt7X5Ty1k3-88" target="321F_N1XVPpt7X5Ty1k3-83">
          <mxGeometry relative="1" as="geometry">
            <mxPoint x="110" y="1155" as="sourcePoint" />
            <mxPoint x="300" y="920" as="targetPoint" />
          </mxGeometry>
        </mxCell>
        <mxCell id="321F_N1XVPpt7X5Ty1k3-92" value="" style="endArrow=none;html=1;rounded=0;entryX=0.429;entryY=1.016;entryDx=0;entryDy=0;entryPerimeter=0;exitX=0.4;exitY=0;exitDx=0;exitDy=0;exitPerimeter=0;" edge="1" parent="1" source="321F_N1XVPpt7X5Ty1k3-86" target="321F_N1XVPpt7X5Ty1k3-83">
          <mxGeometry relative="1" as="geometry">
            <mxPoint x="400" y="995" as="sourcePoint" />
            <mxPoint x="270" y="1155" as="targetPoint" />
          </mxGeometry>
        </mxCell>
        <mxCell id="321F_N1XVPpt7X5Ty1k3-93" value="" style="endArrow=none;html=1;rounded=0;entryX=0;entryY=0;entryDx=0;entryDy=0;" edge="1" parent="1" source="321F_N1XVPpt7X5Ty1k3-85" target="321F_N1XVPpt7X5Ty1k3-83">
          <mxGeometry relative="1" as="geometry">
            <mxPoint x="110" y="1155" as="sourcePoint" />
            <mxPoint x="290" y="850" as="targetPoint" />
          </mxGeometry>
        </mxCell>
        <mxCell id="321F_N1XVPpt7X5Ty1k3-94" value="&lt;font face=&quot;Lucida Console&quot;&gt;&lt;span style=&quot;font-size: 20px;&quot;&gt;User&lt;/span&gt;&lt;/font&gt;" style="whiteSpace=wrap;html=1;align=center;" vertex="1" parent="1">
          <mxGeometry x="840" y="600" width="190" height="70" as="geometry" />
        </mxCell>
        <mxCell id="321F_N1XVPpt7X5Ty1k3-95" style="edgeStyle=orthogonalEdgeStyle;rounded=0;orthogonalLoop=1;jettySize=auto;html=1;exitX=0.5;exitY=1;exitDx=0;exitDy=0;" edge="1" parent="1" source="321F_N1XVPpt7X5Ty1k3-94" target="321F_N1XVPpt7X5Ty1k3-94">
          <mxGeometry relative="1" as="geometry" />
        </mxCell>
        <mxCell id="321F_N1XVPpt7X5Ty1k3-96" value="&lt;font face=&quot;Lucida Console&quot;&gt;user_id&lt;/font&gt;" style="ellipse;whiteSpace=wrap;html=1;align=center;fontStyle=4;" vertex="1" parent="1">
          <mxGeometry x="1010" y="750" width="100" height="35" as="geometry" />
        </mxCell>
        <mxCell id="321F_N1XVPpt7X5Ty1k3-97" value="&lt;font face=&quot;Lucida Console&quot;&gt;username&lt;/font&gt;" style="ellipse;whiteSpace=wrap;html=1;align=center;" vertex="1" parent="1">
          <mxGeometry x="900" y="750" width="100" height="35" as="geometry" />
        </mxCell>
        <mxCell id="321F_N1XVPpt7X5Ty1k3-98" value="&lt;font face=&quot;Lucida Console&quot;&gt;role&lt;/font&gt;" style="ellipse;whiteSpace=wrap;html=1;align=center;" vertex="1" parent="1">
          <mxGeometry x="680" y="750" width="100" height="35" as="geometry" />
        </mxCell>
        <mxCell id="321F_N1XVPpt7X5Ty1k3-99" value="&lt;font face=&quot;Lucida Console&quot;&gt;password&lt;/font&gt;" style="ellipse;whiteSpace=wrap;html=1;align=center;" vertex="1" parent="1">
          <mxGeometry x="790" y="750" width="100" height="35" as="geometry" />
        </mxCell>
        <mxCell id="321F_N1XVPpt7X5Ty1k3-100" value="" style="endArrow=none;html=1;rounded=0;exitX=0.6;exitY=-0.029;exitDx=0;exitDy=0;exitPerimeter=0;entryX=0.34;entryY=1.05;entryDx=0;entryDy=0;entryPerimeter=0;" edge="1" parent="1" source="321F_N1XVPpt7X5Ty1k3-99" target="321F_N1XVPpt7X5Ty1k3-94">
          <mxGeometry relative="1" as="geometry">
            <mxPoint x="640" y="900" as="sourcePoint" />
            <mxPoint x="870" y="660" as="targetPoint" />
          </mxGeometry>
        </mxCell>
        <mxCell id="321F_N1XVPpt7X5Ty1k3-101" value="" style="endArrow=none;html=1;rounded=0;entryX=0.673;entryY=1.075;entryDx=0;entryDy=0;entryPerimeter=0;exitX=0.4;exitY=0;exitDx=0;exitDy=0;exitPerimeter=0;" edge="1" parent="1" source="321F_N1XVPpt7X5Ty1k3-97" target="321F_N1XVPpt7X5Ty1k3-94">
          <mxGeometry relative="1" as="geometry">
            <mxPoint x="930" y="740" as="sourcePoint" />
            <mxPoint x="800" y="900" as="targetPoint" />
          </mxGeometry>
        </mxCell>
        <mxCell id="321F_N1XVPpt7X5Ty1k3-102" value="" style="endArrow=none;html=1;rounded=0;entryX=0.88;entryY=1.05;entryDx=0;entryDy=0;entryPerimeter=0;" edge="1" parent="1" source="321F_N1XVPpt7X5Ty1k3-96" target="321F_N1XVPpt7X5Ty1k3-94">
          <mxGeometry relative="1" as="geometry">
            <mxPoint x="640" y="900" as="sourcePoint" />
            <mxPoint x="1020" y="710" as="targetPoint" />
          </mxGeometry>
        </mxCell>
        <mxCell id="321F_N1XVPpt7X5Ty1k3-103" value="" style="endArrow=none;html=1;rounded=0;exitX=0.6;exitY=0;exitDx=0;exitDy=0;exitPerimeter=0;entryX=0.158;entryY=1.025;entryDx=0;entryDy=0;entryPerimeter=0;" edge="1" parent="1" source="321F_N1XVPpt7X5Ty1k3-98" target="321F_N1XVPpt7X5Ty1k3-94">
          <mxGeometry relative="1" as="geometry">
            <mxPoint x="830" y="650" as="sourcePoint" />
            <mxPoint x="850" y="642" as="targetPoint" />
          </mxGeometry>
        </mxCell>
        <mxCell id="321F_N1XVPpt7X5Ty1k3-104" value="&lt;font face=&quot;Lucida Console&quot;&gt;staff_id&lt;/font&gt;" style="ellipse;whiteSpace=wrap;html=1;align=center;fontStyle=4;" vertex="1" parent="1">
          <mxGeometry x="1170" y="750" width="110" height="35" as="geometry" />
        </mxCell>
        <mxCell id="321F_N1XVPpt7X5Ty1k3-105" value="" style="endArrow=none;html=1;rounded=0;entryX=0.958;entryY=1;entryDx=0;entryDy=0;entryPerimeter=0;" edge="1" parent="1" target="321F_N1XVPpt7X5Ty1k3-94">
          <mxGeometry relative="1" as="geometry">
            <mxPoint x="1210" y="750" as="sourcePoint" />
            <mxPoint x="1050" y="680" as="targetPoint" />
          </mxGeometry>
        </mxCell>
        <mxCell id="321F_N1XVPpt7X5Ty1k3-106" value="" style="line;strokeWidth=1;rotatable=0;dashed=0;labelPosition=right;align=left;verticalAlign=middle;spacingTop=0;spacingLeft=6;points=[];portConstraint=eastwest;direction=south;" vertex="1" parent="1">
          <mxGeometry x="952.5" y="1257.5" width="5" height="60" as="geometry" />
        </mxCell>
        <mxCell id="321F_N1XVPpt7X5Ty1k3-107" value="&lt;u&gt;&lt;font face=&quot;Lucida Console&quot;&gt;bill_id&lt;/font&gt;&lt;/u&gt;" style="ellipse;whiteSpace=wrap;html=1;align=center;" vertex="1" parent="1">
          <mxGeometry x="905" y="1317.5" width="100" height="35" as="geometry" />
        </mxCell>
        <mxCell id="321F_N1XVPpt7X5Ty1k3-108" value="" style="endArrow=none;html=1;rounded=0;" edge="1" parent="1">
          <mxGeometry relative="1" as="geometry">
            <mxPoint x="160" y="879" as="sourcePoint" />
            <mxPoint x="295" y="879.4100000000001" as="targetPoint" />
          </mxGeometry>
        </mxCell>
        <mxCell id="321F_N1XVPpt7X5Ty1k3-109" value="&lt;font face=&quot;Lucida Console&quot;&gt;schedule&lt;/font&gt;" style="ellipse;whiteSpace=wrap;html=1;align=center;" vertex="1" parent="1">
          <mxGeometry x="60" y="862.5" width="100" height="35" as="geometry" />
        </mxCell>
        <mxCell id="321F_N1XVPpt7X5Ty1k3-117" value="" style="endArrow=none;html=1;rounded=0;entryX=0;entryY=0.75;entryDx=0;entryDy=0;exitX=0.5;exitY=0;exitDx=0;exitDy=0;" edge="1" parent="1" source="321F_N1XVPpt7X5Ty1k3-115" target="321F_N1XVPpt7X5Ty1k3-11">
          <mxGeometry relative="1" as="geometry">
            <mxPoint x="-340" y="560" as="sourcePoint" />
            <mxPoint x="-400" y="385" as="targetPoint" />
          </mxGeometry>
        </mxCell>
        <mxCell id="321F_N1XVPpt7X5Ty1k3-137" value="N" style="text;html=1;align=center;verticalAlign=middle;whiteSpace=wrap;rounded=0;" vertex="1" parent="1">
          <mxGeometry x="-350" y="445" width="60" height="30" as="geometry" />
        </mxCell>
        <mxCell id="321F_N1XVPpt7X5Ty1k3-138" value="&lt;font face=&quot;Lucida Console&quot;&gt;BOOKS&lt;/font&gt;" style="shape=rhombus;perimeter=rhombusPerimeter;whiteSpace=wrap;html=1;align=center;" vertex="1" parent="1">
          <mxGeometry x="170" y="495" width="120" height="60" as="geometry" />
        </mxCell>
        <mxCell id="321F_N1XVPpt7X5Ty1k3-139" value="1" style="text;html=1;align=center;verticalAlign=middle;whiteSpace=wrap;rounded=0;container=1;" vertex="1" parent="1">
          <mxGeometry x="40" y="615" width="60" height="30" as="geometry" />
        </mxCell>
        <mxCell id="321F_N1XVPpt7X5Ty1k3-140" value="" style="endArrow=none;html=1;rounded=0;entryX=0;entryY=0.5;entryDx=0;entryDy=0;exitX=1;exitY=0.25;exitDx=0;exitDy=0;" edge="1" parent="1" source="321F_N1XVPpt7X5Ty1k3-56" target="321F_N1XVPpt7X5Ty1k3-138">
          <mxGeometry relative="1" as="geometry">
            <mxPoint x="-150" y="620" as="sourcePoint" />
            <mxPoint x="230" y="555" as="targetPoint" />
          </mxGeometry>
        </mxCell>
        <mxCell id="321F_N1XVPpt7X5Ty1k3-141" value="N" style="text;html=1;align=center;verticalAlign=middle;whiteSpace=wrap;rounded=0;" vertex="1" parent="1">
          <mxGeometry x="290" y="470" width="60" height="30" as="geometry" />
        </mxCell>
        <mxCell id="321F_N1XVPpt7X5Ty1k3-143" value="" style="endArrow=none;html=1;rounded=0;entryX=0;entryY=0.75;entryDx=0;entryDy=0;exitX=1;exitY=0.5;exitDx=0;exitDy=0;" edge="1" parent="1" source="321F_N1XVPpt7X5Ty1k3-138" target="321F_N1XVPpt7X5Ty1k3-1">
          <mxGeometry relative="1" as="geometry">
            <mxPoint x="230" y="495" as="sourcePoint" />
            <mxPoint x="420" y="430" as="targetPoint" />
          </mxGeometry>
        </mxCell>
        <mxCell id="321F_N1XVPpt7X5Ty1k3-144" value="&lt;font face=&quot;Lucida Console&quot;&gt;RECEIVES&lt;/font&gt;" style="shape=rhombus;perimeter=rhombusPerimeter;whiteSpace=wrap;html=1;align=center;" vertex="1" parent="1">
          <mxGeometry x="-430" y="1032.5" width="120" height="60" as="geometry" />
        </mxCell>
        <mxCell id="321F_N1XVPpt7X5Ty1k3-145" value="N" style="text;html=1;align=center;verticalAlign=middle;whiteSpace=wrap;rounded=0;container=1;" vertex="1" parent="1">
          <mxGeometry x="-115" y="1110" width="60" height="30" as="geometry" />
        </mxCell>
        <mxCell id="321F_N1XVPpt7X5Ty1k3-146" value="" style="endArrow=none;html=1;rounded=0;entryX=0.5;entryY=1;entryDx=0;entryDy=0;" edge="1" parent="1" source="321F_N1XVPpt7X5Ty1k3-71" target="321F_N1XVPpt7X5Ty1k3-144">
          <mxGeometry relative="1" as="geometry">
            <mxPoint x="-340" y="935" as="sourcePoint" />
            <mxPoint x="-360" y="1090" as="targetPoint" />
          </mxGeometry>
        </mxCell>
        <mxCell id="321F_N1XVPpt7X5Ty1k3-147" value="1" style="text;html=1;align=center;verticalAlign=middle;whiteSpace=wrap;rounded=0;" vertex="1" parent="1">
          <mxGeometry x="-410" y="975" width="60" height="30" as="geometry" />
        </mxCell>
        <mxCell id="321F_N1XVPpt7X5Ty1k3-148" value="" style="endArrow=none;html=1;rounded=0;entryX=0.203;entryY=0.961;entryDx=0;entryDy=0;entryPerimeter=0;" edge="1" parent="1" target="321F_N1XVPpt7X5Ty1k3-56">
          <mxGeometry relative="1" as="geometry">
            <mxPoint x="-330" y="835" as="sourcePoint" />
            <mxPoint x="-380" y="760" as="targetPoint" />
          </mxGeometry>
        </mxCell>
        <mxCell id="321F_N1XVPpt7X5Ty1k3-156" value="&lt;font face=&quot;Lucida Console&quot;&gt;HANDLES&lt;/font&gt;" style="shape=rhombus;perimeter=rhombusPerimeter;whiteSpace=wrap;html=1;align=center;" vertex="1" parent="1">
          <mxGeometry x="395" y="695" width="120" height="60" as="geometry" />
        </mxCell>
        <mxCell id="321F_N1XVPpt7X5Ty1k3-157" value="&lt;font face=&quot;Lucida Console&quot;&gt;M&lt;/font&gt;" style="text;html=1;align=center;verticalAlign=middle;whiteSpace=wrap;rounded=0;container=1;" vertex="1" parent="1">
          <mxGeometry x="435" y="785" width="60" height="30" as="geometry" />
        </mxCell>
        <mxCell id="321F_N1XVPpt7X5Ty1k3-158" value="" style="endArrow=none;html=1;rounded=0;exitX=0.5;exitY=1;exitDx=0;exitDy=0;" edge="1" parent="1" source="321F_N1XVPpt7X5Ty1k3-156">
          <mxGeometry relative="1" as="geometry">
            <mxPoint x="450" y="760" as="sourcePoint" />
            <mxPoint x="435" y="845" as="targetPoint" />
          </mxGeometry>
        </mxCell>
        <mxCell id="321F_N1XVPpt7X5Ty1k3-160" value="&lt;font face=&quot;Lucida Console&quot;&gt;N&lt;/font&gt;" style="text;strokeColor=none;fillColor=none;spacingLeft=4;spacingRight=4;overflow=hidden;rotatable=0;points=[[0,0.5],[1,0.5]];portConstraint=eastwest;fontSize=12;whiteSpace=wrap;html=1;" vertex="1" parent="1">
          <mxGeometry x="465" y="647.5" width="40" height="30" as="geometry" />
        </mxCell>
        <mxCell id="321F_N1XVPpt7X5Ty1k3-161" value="" style="endArrow=none;html=1;rounded=0;exitX=0.5;exitY=1;exitDx=0;exitDy=0;entryX=0.5;entryY=0;entryDx=0;entryDy=0;" edge="1" parent="1" source="321F_N1XVPpt7X5Ty1k3-1" target="321F_N1XVPpt7X5Ty1k3-156">
          <mxGeometry relative="1" as="geometry">
            <mxPoint x="420" y="650" as="sourcePoint" />
            <mxPoint x="460" y="690" as="targetPoint" />
          </mxGeometry>
        </mxCell>
        <mxCell id="321F_N1XVPpt7X5Ty1k3-162" value="&lt;font face=&quot;Lucida Console&quot;&gt;CONDUCTS&lt;/font&gt;" style="shape=rhombus;perimeter=rhombusPerimeter;whiteSpace=wrap;html=1;align=center;" vertex="1" parent="1">
          <mxGeometry x="625" y="1150" width="120" height="60" as="geometry" />
        </mxCell>
        <mxCell id="321F_N1XVPpt7X5Ty1k3-163" value="&lt;font face=&quot;Lucida Console&quot;&gt;N&lt;/font&gt;" style="text;html=1;align=center;verticalAlign=middle;whiteSpace=wrap;rounded=0;container=1;" vertex="1" parent="1">
          <mxGeometry x="765" y="1187.5" width="60" height="30" as="geometry" />
        </mxCell>
        <mxCell id="321F_N1XVPpt7X5Ty1k3-164" value="" style="endArrow=none;html=1;rounded=0;exitX=1;exitY=0.5;exitDx=0;exitDy=0;" edge="1" parent="1" source="321F_N1XVPpt7X5Ty1k3-162" target="321F_N1XVPpt7X5Ty1k3-47">
          <mxGeometry relative="1" as="geometry">
            <mxPoint x="690" y="1210.9523809523807" as="sourcePoint" />
            <mxPoint x="665" y="1300" as="targetPoint" />
          </mxGeometry>
        </mxCell>
        <mxCell id="321F_N1XVPpt7X5Ty1k3-166" value="&lt;font face=&quot;Lucida Console&quot;&gt;1&lt;/font&gt;" style="text;strokeColor=none;fillColor=none;spacingLeft=4;spacingRight=4;overflow=hidden;rotatable=0;points=[[0,0.5],[1,0.5]];portConstraint=eastwest;fontSize=12;whiteSpace=wrap;html=1;" vertex="1" parent="1">
          <mxGeometry x="560" y="1110" width="40" height="30" as="geometry" />
        </mxCell>
        <mxCell id="321F_N1XVPpt7X5Ty1k3-167" value="" style="endArrow=none;html=1;rounded=0;exitX=0;exitY=0.5;exitDx=0;exitDy=0;entryX=1;entryY=0.5;entryDx=0;entryDy=0;" edge="1" parent="1" source="321F_N1XVPpt7X5Ty1k3-162" target="321F_N1XVPpt7X5Ty1k3-83">
          <mxGeometry relative="1" as="geometry">
            <mxPoint x="640" y="1020" as="sourcePoint" />
            <mxPoint x="450" y="880" as="targetPoint" />
          </mxGeometry>
        </mxCell>
        <mxCell id="321F_N1XVPpt7X5Ty1k3-168" style="edgeStyle=orthogonalEdgeStyle;rounded=0;orthogonalLoop=1;jettySize=auto;html=1;exitX=0.5;exitY=1;exitDx=0;exitDy=0;" edge="1" parent="1">
          <mxGeometry relative="1" as="geometry">
            <mxPoint x="-1050.5" y="425.01" as="sourcePoint" />
            <mxPoint x="-1050.5" y="425.01" as="targetPoint" />
          </mxGeometry>
        </mxCell>
        <mxCell id="321F_N1XVPpt7X5Ty1k3-170" value="&lt;font face=&quot;Lucida Console&quot;&gt;RECEIVES&lt;/font&gt;" style="shape=rhombus;perimeter=rhombusPerimeter;whiteSpace=wrap;html=1;align=center;" vertex="1" parent="1">
          <mxGeometry x="-589.9999999999995" y="502.5" width="120" height="60" as="geometry" />
        </mxCell>
        <mxCell id="321F_N1XVPpt7X5Ty1k3-173" value="&lt;font face=&quot;Lucida Console&quot;&gt;N&lt;/font&gt;" style="text;strokeColor=none;fillColor=none;spacingLeft=4;spacingRight=4;overflow=hidden;rotatable=0;points=[[0,0.5],[1,0.5]];portConstraint=eastwest;fontSize=12;whiteSpace=wrap;html=1;" vertex="1" parent="1">
          <mxGeometry x="-559.9999999999995" y="450" width="40" height="30" as="geometry" />
        </mxCell>
        <mxCell id="321F_N1XVPpt7X5Ty1k3-174" value="" style="endArrow=none;html=1;rounded=0;exitX=0.5;exitY=0;exitDx=0;exitDy=0;entryX=1;entryY=0.5;entryDx=0;entryDy=0;" edge="1" source="321F_N1XVPpt7X5Ty1k3-170" parent="1" target="321F_N1XVPpt7X5Ty1k3-36">
          <mxGeometry relative="1" as="geometry">
            <mxPoint x="-699.9999999999995" y="420" as="sourcePoint" />
            <mxPoint x="-539.9999999999995" y="420" as="targetPoint" />
          </mxGeometry>
        </mxCell>
        <mxCell id="321F_N1XVPpt7X5Ty1k3-175" value="&lt;font face=&quot;Lucida Console&quot;&gt;BELONGS TO&lt;/font&gt;" style="shape=rhombus;perimeter=rhombusPerimeter;whiteSpace=wrap;html=1;align=center;" vertex="1" parent="1">
          <mxGeometry x="-889.9999999999995" y="502.5" width="120" height="60" as="geometry" />
        </mxCell>
        <mxCell id="321F_N1XVPpt7X5Ty1k3-176" value="&lt;font face=&quot;Lucida Console&quot;&gt;M&lt;/font&gt;" style="text;html=1;align=center;verticalAlign=middle;whiteSpace=wrap;rounded=0;container=1;" vertex="1" parent="1">
          <mxGeometry x="-849.9999999999995" y="592.5" width="60" height="30" as="geometry" />
        </mxCell>
        <mxCell id="321F_N1XVPpt7X5Ty1k3-177" value="" style="endArrow=none;html=1;rounded=0;entryX=0.75;entryY=0;entryDx=0;entryDy=0;" edge="1" parent="1" target="321F_N1XVPpt7X5Ty1k3-25">
          <mxGeometry relative="1" as="geometry">
            <mxPoint x="-830" y="560" as="sourcePoint" />
            <mxPoint x="-849.9999999999995" y="652.5" as="targetPoint" />
          </mxGeometry>
        </mxCell>
        <mxCell id="321F_N1XVPpt7X5Ty1k3-178" value="&lt;font face=&quot;Lucida Console&quot;&gt;N&lt;/font&gt;" style="text;strokeColor=none;fillColor=none;spacingLeft=4;spacingRight=4;overflow=hidden;rotatable=0;points=[[0,0.5],[1,0.5]];portConstraint=eastwest;fontSize=12;whiteSpace=wrap;html=1;" vertex="1" parent="1">
          <mxGeometry x="-819.9999999999995" y="455" width="40" height="30" as="geometry" />
        </mxCell>
        <mxCell id="321F_N1XVPpt7X5Ty1k3-179" value="" style="endArrow=none;html=1;rounded=0;exitX=0.5;exitY=0;exitDx=0;exitDy=0;" edge="1" source="321F_N1XVPpt7X5Ty1k3-175" parent="1">
          <mxGeometry relative="1" as="geometry">
            <mxPoint x="-999.9999999999995" y="420" as="sourcePoint" />
            <mxPoint x="-839.9999999999995" y="420" as="targetPoint" />
          </mxGeometry>
        </mxCell>
        <mxCell id="321F_N1XVPpt7X5Ty1k3-180" value="&lt;font face=&quot;Lucida Console&quot;&gt;GENERATES&lt;/font&gt;" style="shape=rhombus;perimeter=rhombusPerimeter;whiteSpace=wrap;html=1;align=center;" vertex="1" parent="1">
          <mxGeometry x="495.00000000000045" y="1347.5" width="120" height="60" as="geometry" />
        </mxCell>
        <mxCell id="321F_N1XVPpt7X5Ty1k3-181" value="&lt;font face=&quot;Lucida Console&quot;&gt;N&lt;/font&gt;" style="text;html=1;align=center;verticalAlign=middle;whiteSpace=wrap;rounded=0;container=1;" vertex="1" parent="1">
          <mxGeometry x="320.00000000000045" y="1300" width="60" height="30" as="geometry" />
        </mxCell>
        <mxCell id="321F_N1XVPpt7X5Ty1k3-182" value="" style="endArrow=none;html=1;rounded=0;entryX=0;entryY=1;entryDx=0;entryDy=0;exitX=1;exitY=0.5;exitDx=0;exitDy=0;" edge="1" parent="1" source="321F_N1XVPpt7X5Ty1k3-180" target="321F_N1XVPpt7X5Ty1k3-47">
          <mxGeometry relative="1" as="geometry">
            <mxPoint x="560.0000000000005" y="1460.9523809523807" as="sourcePoint" />
            <mxPoint x="535.0000000000005" y="1550" as="targetPoint" />
          </mxGeometry>
        </mxCell>
        <mxCell id="321F_N1XVPpt7X5Ty1k3-183" value="&lt;font face=&quot;Lucida Console&quot;&gt;1&lt;/font&gt;" style="text;strokeColor=none;fillColor=none;spacingLeft=4;spacingRight=4;overflow=hidden;rotatable=0;points=[[0,0.5],[1,0.5]];portConstraint=eastwest;fontSize=12;whiteSpace=wrap;html=1;" vertex="1" parent="1">
          <mxGeometry x="695.0000000000005" y="1347.5" width="40" height="30" as="geometry" />
        </mxCell>
        <mxCell id="321F_N1XVPpt7X5Ty1k3-184" value="" style="endArrow=none;html=1;rounded=0;exitX=0;exitY=0.5;exitDx=0;exitDy=0;entryX=1;entryY=0.5;entryDx=0;entryDy=0;" edge="1" source="321F_N1XVPpt7X5Ty1k3-180" parent="1" target="321F_N1XVPpt7X5Ty1k3-71">
          <mxGeometry relative="1" as="geometry">
            <mxPoint x="410.00000000000045" y="1170" as="sourcePoint" />
            <mxPoint x="570.0000000000005" y="1170" as="targetPoint" />
          </mxGeometry>
        </mxCell>
        <mxCell id="321F_N1XVPpt7X5Ty1k3-186" value="&lt;font face=&quot;Lucida Console&quot;&gt;REPRESENTS&lt;/font&gt;" style="shape=rhombus;perimeter=rhombusPerimeter;whiteSpace=wrap;html=1;align=center;" vertex="1" parent="1">
          <mxGeometry x="590.0000000000005" y="642.5" width="120" height="60" as="geometry" />
        </mxCell>
        <mxCell id="321F_N1XVPpt7X5Ty1k3-187" value="&lt;font face=&quot;Lucida Console&quot;&gt;1&lt;/font&gt;" style="text;html=1;align=center;verticalAlign=middle;whiteSpace=wrap;rounded=0;container=1;" vertex="1" parent="1">
          <mxGeometry x="520.0000000000005" y="730" width="60" height="30" as="geometry" />
        </mxCell>
        <mxCell id="321F_N1XVPpt7X5Ty1k3-188" value="" style="endArrow=none;html=1;rounded=0;entryX=0.995;entryY=0.138;entryDx=0;entryDy=0;entryPerimeter=0;exitX=0;exitY=0.5;exitDx=0;exitDy=0;" edge="1" parent="1" source="321F_N1XVPpt7X5Ty1k3-186" target="321F_N1XVPpt7X5Ty1k3-83">
          <mxGeometry relative="1" as="geometry">
            <mxPoint x="655.0000000000005" y="703.4523809523807" as="sourcePoint" />
            <mxPoint x="630.0000000000005" y="792.5" as="targetPoint" />
          </mxGeometry>
        </mxCell>
        <mxCell id="321F_N1XVPpt7X5Ty1k3-189" value="&lt;font face=&quot;Lucida Console&quot;&gt;1&lt;/font&gt;" style="text;strokeColor=none;fillColor=none;spacingLeft=4;spacingRight=4;overflow=hidden;rotatable=0;points=[[0,0.5],[1,0.5]];portConstraint=eastwest;fontSize=12;whiteSpace=wrap;html=1;" vertex="1" parent="1">
          <mxGeometry x="735.0000000000005" y="632.5" width="40" height="30" as="geometry" />
        </mxCell>
        <mxCell id="321F_N1XVPpt7X5Ty1k3-190" value="" style="endArrow=none;html=1;rounded=0;exitX=1;exitY=0.5;exitDx=0;exitDy=0;entryX=-0.017;entryY=0.368;entryDx=0;entryDy=0;entryPerimeter=0;" edge="1" source="321F_N1XVPpt7X5Ty1k3-186" parent="1" target="321F_N1XVPpt7X5Ty1k3-94">
          <mxGeometry relative="1" as="geometry">
            <mxPoint x="480.00000000000045" y="560" as="sourcePoint" />
            <mxPoint x="640.0000000000005" y="560" as="targetPoint" />
          </mxGeometry>
        </mxCell>
        <mxCell id="321F_N1XVPpt7X5Ty1k3-191" value="" style="endArrow=none;html=1;rounded=0;exitX=0.687;exitY=0;exitDx=0;exitDy=0;exitPerimeter=0;entryX=0;entryY=1;entryDx=0;entryDy=0;" edge="1" parent="1" source="321F_N1XVPpt7X5Ty1k3-192" target="321F_N1XVPpt7X5Ty1k3-25">
          <mxGeometry relative="1" as="geometry">
            <mxPoint x="-1000" y="840" as="sourcePoint" />
            <mxPoint x="-969.5" y="740" as="targetPoint" />
          </mxGeometry>
        </mxCell>
        <mxCell id="321F_N1XVPpt7X5Ty1k3-192" value="&lt;font face=&quot;Lucida Console&quot;&gt;manufacturing_date&lt;/font&gt;" style="ellipse;whiteSpace=wrap;html=1;align=center;" vertex="1" parent="1">
          <mxGeometry x="-1130" y="860" width="130" height="40" as="geometry" />
        </mxCell>
        <mxCell id="321F_N1XVPpt7X5Ty1k3-55" value="Attribute" style="ellipse;whiteSpace=wrap;html=1;align=center;" vertex="1" parent="1">
          <mxGeometry x="-345" y="805" width="100" height="40" as="geometry" />
        </mxCell>
        <mxCell id="321F_N1XVPpt7X5Ty1k3-56" value="Patient" style="whiteSpace=wrap;html=1;align=center;fontFamily=Lucida Console;fontSize=20;" vertex="1" parent="1">
          <mxGeometry x="-375" y="805" width="150" height="70" as="geometry" />
        </mxCell>
        <mxCell id="321F_N1XVPpt7X5Ty1k3-57" value="" style="line;strokeWidth=1;rotatable=0;dashed=0;labelPosition=right;align=left;verticalAlign=middle;spacingTop=0;spacingLeft=6;points=[];portConstraint=eastwest;" vertex="1" parent="1">
          <mxGeometry x="-225" y="840" width="60" height="10" as="geometry" />
        </mxCell>
        <mxCell id="321F_N1XVPpt7X5Ty1k3-59" value="name" style="ellipse;whiteSpace=wrap;html=1;align=center;" vertex="1" parent="1">
          <mxGeometry x="-345" y="935" width="100" height="35" as="geometry" />
        </mxCell>
        <mxCell id="321F_N1XVPpt7X5Ty1k3-60" value="" style="line;strokeWidth=1;rotatable=0;dashed=0;labelPosition=right;align=left;verticalAlign=middle;spacingTop=0;spacingLeft=6;points=[];portConstraint=eastwest;direction=south;" vertex="1" parent="1">
          <mxGeometry x="-300" y="875" width="10" height="60" as="geometry" />
        </mxCell>
        <mxCell id="321F_N1XVPpt7X5Ty1k3-61" value="age" style="ellipse;whiteSpace=wrap;html=1;align=center;" vertex="1" parent="1">
          <mxGeometry x="-535" y="827.5" width="100" height="35" as="geometry" />
        </mxCell>
        <mxCell id="321F_N1XVPpt7X5Ty1k3-62" value="" style="line;strokeWidth=1;rotatable=0;dashed=0;labelPosition=right;align=left;verticalAlign=middle;spacingTop=0;spacingLeft=6;points=[];portConstraint=eastwest;" vertex="1" parent="1">
          <mxGeometry x="-435" y="840" width="60" height="10" as="geometry" />
        </mxCell>
        <mxCell id="321F_N1XVPpt7X5Ty1k3-63" value="gender" style="ellipse;whiteSpace=wrap;html=1;align=center;" vertex="1" parent="1">
          <mxGeometry x="-335" y="710" width="100" height="35" as="geometry" />
        </mxCell>
        <mxCell id="321F_N1XVPpt7X5Ty1k3-64" value="" style="line;strokeWidth=1;rotatable=0;dashed=0;labelPosition=right;align=left;verticalAlign=middle;spacingTop=0;spacingLeft=6;points=[];portConstraint=eastwest;direction=south;" vertex="1" parent="1">
          <mxGeometry x="-290" y="745" width="10" height="60" as="geometry" />
        </mxCell>
        <mxCell id="321F_N1XVPpt7X5Ty1k3-65" value="" style="endArrow=none;html=1;rounded=0;" edge="1" parent="1">
          <mxGeometry width="50" height="50" relative="1" as="geometry">
            <mxPoint x="-225" y="805" as="sourcePoint" />
            <mxPoint x="-175" y="755" as="targetPoint" />
          </mxGeometry>
        </mxCell>
        <mxCell id="321F_N1XVPpt7X5Ty1k3-66" value="" style="endArrow=none;html=1;rounded=0;" edge="1" parent="1">
          <mxGeometry width="50" height="50" relative="1" as="geometry">
            <mxPoint x="-425" y="925" as="sourcePoint" />
            <mxPoint x="-375" y="875" as="targetPoint" />
          </mxGeometry>
        </mxCell>
        <mxCell id="321F_N1XVPpt7X5Ty1k3-67" value="contact" style="ellipse;whiteSpace=wrap;html=1;align=center;" vertex="1" parent="1">
          <mxGeometry x="-485" y="925" width="100" height="35" as="geometry" />
        </mxCell>
        <mxCell id="321F_N1XVPpt7X5Ty1k3-68" value="address" style="ellipse;whiteSpace=wrap;html=1;align=center;" vertex="1" parent="1">
          <mxGeometry x="-235" y="720" width="100" height="35" as="geometry" />
        </mxCell>
        <mxCell id="321F_N1XVPpt7X5Ty1k3-69" value="" style="endArrow=none;html=1;rounded=0;" edge="1" parent="1">
          <mxGeometry width="50" height="50" relative="1" as="geometry">
            <mxPoint x="-175" y="925" as="sourcePoint" />
            <mxPoint x="-225" y="875" as="targetPoint" />
          </mxGeometry>
        </mxCell>
        <mxCell id="321F_N1XVPpt7X5Ty1k3-70" value="medical_history" style="ellipse;whiteSpace=wrap;html=1;align=center;" vertex="1" parent="1">
          <mxGeometry x="-215" y="925" width="100" height="35" as="geometry" />
        </mxCell>
        <mxCell id="321F_N1XVPpt7X5Ty1k3-116" value="1" style="text;html=1;align=center;verticalAlign=middle;whiteSpace=wrap;rounded=0;container=1;" vertex="1" parent="1">
          <mxGeometry x="-385" y="650" width="60" height="30" as="geometry" />
        </mxCell>
        <mxCell id="321F_N1XVPpt7X5Ty1k3-114" value="" style="endArrow=none;html=1;rounded=0;entryX=0.5;entryY=1;entryDx=0;entryDy=0;" edge="1" parent="1" target="321F_N1XVPpt7X5Ty1k3-115">
          <mxGeometry relative="1" as="geometry">
            <mxPoint x="-365" y="805" as="sourcePoint" />
            <mxPoint x="-415" y="730" as="targetPoint" />
          </mxGeometry>
        </mxCell>
        <mxCell id="321F_N1XVPpt7X5Ty1k3-171" value="&lt;font face=&quot;Lucida Console&quot;&gt;1&lt;/font&gt;" style="text;html=1;align=center;verticalAlign=middle;whiteSpace=wrap;rounded=0;container=1;" vertex="1" parent="1">
          <mxGeometry x="-494.99999999999955" y="730" width="60" height="30" as="geometry" />
        </mxCell>
        <mxCell id="321F_N1XVPpt7X5Ty1k3-172" value="" style="endArrow=none;html=1;rounded=0;exitX=0.5;exitY=1;exitDx=0;exitDy=0;" edge="1" parent="1" source="321F_N1XVPpt7X5Ty1k3-170">
          <mxGeometry relative="1" as="geometry">
            <mxPoint x="-589.9999999999995" y="773.4523809523807" as="sourcePoint" />
            <mxPoint x="-375" y="820" as="targetPoint" />
          </mxGeometry>
        </mxCell>
        <mxCell id="321F_N1XVPpt7X5Ty1k3-58" value="patient_id" style="ellipse;whiteSpace=wrap;html=1;align=center;fontStyle=4;" vertex="1" parent="1">
          <mxGeometry x="-170" y="820" width="100" height="35" as="geometry" />
        </mxCell>
        <mxCell id="321F_N1XVPpt7X5Ty1k3-115" value="&lt;font face=&quot;Lucida Console&quot;&gt;RECEIVES&lt;/font&gt;" style="shape=rhombus;perimeter=rhombusPerimeter;whiteSpace=wrap;html=1;align=center;" vertex="1" parent="1">
          <mxGeometry x="-400" y="565" width="120" height="60" as="geometry" />
        </mxCell>
        <mxCell id="321F_N1XVPpt7X5Ty1k3-194" value="" style="endArrow=none;html=1;rounded=0;entryX=0.25;entryY=1;entryDx=0;entryDy=0;" edge="1" parent="1" target="321F_N1XVPpt7X5Ty1k3-56">
          <mxGeometry relative="1" as="geometry">
            <mxPoint x="-370" y="1030" as="sourcePoint" />
            <mxPoint x="-375" y="1000" as="targetPoint" />
          </mxGeometry>
        </mxCell>
        <mxCell id="321F_N1XVPpt7X5Ty1k3-195" value="&lt;font face=&quot;Lucida Console&quot; style=&quot;font-size: 20px;&quot;&gt;Medical History&lt;/font&gt;" style="rounded=0;whiteSpace=wrap;html=1;" vertex="1" parent="1">
          <mxGeometry x="-830" y="1252.5" width="210" height="60" as="geometry" />
        </mxCell>
        <mxCell id="321F_N1XVPpt7X5Ty1k3-196" value="" style="endArrow=none;html=1;rounded=0;entryX=0.25;entryY=1;entryDx=0;entryDy=0;exitX=0.659;exitY=0.048;exitDx=0;exitDy=0;exitPerimeter=0;" edge="1" parent="1" source="321F_N1XVPpt7X5Ty1k3-198">
          <mxGeometry width="50" height="50" relative="1" as="geometry">
            <mxPoint x="-840" y="1412.5" as="sourcePoint" />
            <mxPoint x="-795" y="1312.5" as="targetPoint" />
          </mxGeometry>
        </mxCell>
        <mxCell id="321F_N1XVPpt7X5Ty1k3-198" value="&lt;font face=&quot;Lucida Console&quot;&gt;&lt;span style=&quot;font-size: 15px;&quot;&gt;HPI&lt;/span&gt;&lt;/font&gt;" style="ellipse;whiteSpace=wrap;html=1;align=center;" vertex="1" parent="1">
          <mxGeometry x="-910" y="1417.5" width="100" height="40" as="geometry" />
        </mxCell>
        <mxCell id="321F_N1XVPpt7X5Ty1k3-199" value="&lt;span data-end=&quot;799&quot; data-start=&quot;775&quot;&gt;&lt;font style=&quot;font-size: 13px;&quot; face=&quot;Lucida Console&quot;&gt;Past Medical History&lt;/font&gt;&lt;/span&gt;" style="ellipse;whiteSpace=wrap;html=1;align=center;" vertex="1" parent="1">
          <mxGeometry x="-790" y="1422.5" width="130" height="40" as="geometry" />
        </mxCell>
        <mxCell id="321F_N1XVPpt7X5Ty1k3-200" value="" style="endArrow=none;html=1;rounded=0;entryX=0.547;entryY=0.992;entryDx=0;entryDy=0;entryPerimeter=0;" edge="1" parent="1" target="321F_N1XVPpt7X5Ty1k3-195">
          <mxGeometry width="50" height="50" relative="1" as="geometry">
            <mxPoint x="-730" y="1422.5" as="sourcePoint" />
            <mxPoint x="-740" y="1312.5" as="targetPoint" />
          </mxGeometry>
        </mxCell>
        <mxCell id="321F_N1XVPpt7X5Ty1k3-201" value="&lt;font face=&quot;Lucida Console&quot;&gt;&lt;span style=&quot;font-size: 13px;&quot;&gt;Patient_ID&lt;/span&gt;&lt;/font&gt;" style="ellipse;whiteSpace=wrap;html=1;align=center;fontStyle=4;" vertex="1" parent="1">
          <mxGeometry x="-640" y="1422.5" width="100" height="40" as="geometry" />
        </mxCell>
        <mxCell id="321F_N1XVPpt7X5Ty1k3-202" value="" style="endArrow=none;html=1;rounded=0;entryX=0.889;entryY=1;entryDx=0;entryDy=0;entryPerimeter=0;exitX=0.279;exitY=-0.026;exitDx=0;exitDy=0;exitPerimeter=0;" edge="1" parent="1" source="321F_N1XVPpt7X5Ty1k3-201" target="321F_N1XVPpt7X5Ty1k3-195">
          <mxGeometry width="50" height="50" relative="1" as="geometry">
            <mxPoint x="-750" y="1582.5" as="sourcePoint" />
            <mxPoint x="-700" y="1532.5" as="targetPoint" />
          </mxGeometry>
        </mxCell>
        <mxCell id="321F_N1XVPpt7X5Ty1k3-203" value="&lt;font face=&quot;Lucida Console&quot;&gt;Allergy Information&lt;/font&gt;" style="ellipse;whiteSpace=wrap;html=1;align=center;" vertex="1" parent="1">
          <mxGeometry x="-1020" y="1422.5" width="100" height="40" as="geometry" />
        </mxCell>
        <mxCell id="321F_N1XVPpt7X5Ty1k3-204" value="" style="endArrow=none;html=1;rounded=0;entryX=0.07;entryY=1.012;entryDx=0;entryDy=0;entryPerimeter=0;exitX=1;exitY=0;exitDx=0;exitDy=0;" edge="1" parent="1" source="321F_N1XVPpt7X5Ty1k3-203" target="321F_N1XVPpt7X5Ty1k3-195">
          <mxGeometry width="50" height="50" relative="1" as="geometry">
            <mxPoint x="-750" y="1582.5" as="sourcePoint" />
            <mxPoint x="-700" y="1532.5" as="targetPoint" />
          </mxGeometry>
        </mxCell>
        <mxCell id="321F_N1XVPpt7X5Ty1k3-205" value="" style="endArrow=none;html=1;rounded=0;entryX=1;entryY=1;entryDx=0;entryDy=0;" edge="1" parent="1" target="321F_N1XVPpt7X5Ty1k3-195">
          <mxGeometry width="50" height="50" relative="1" as="geometry">
            <mxPoint x="-464.3091220904371" y="1425.022853399032" as="sourcePoint" />
            <mxPoint x="-650" y="1462.5" as="targetPoint" />
          </mxGeometry>
        </mxCell>
        <mxCell id="321F_N1XVPpt7X5Ty1k3-206" value="&lt;h3 data-end=&quot;949&quot; data-start=&quot;920&quot;&gt;&lt;span style=&quot;font-weight: normal;&quot; data-end=&quot;949&quot; data-start=&quot;927&quot;&gt;&lt;font face=&quot;Lucida Console&quot; style=&quot;font-size: 12px;&quot;&gt;Medication History&lt;/font&gt;&lt;/span&gt;&lt;/h3&gt;" style="ellipse;whiteSpace=wrap;html=1;align=center;" vertex="1" parent="1">
          <mxGeometry x="-500" y="1422.5" width="110" height="35" as="geometry" />
        </mxCell>
        <mxCell id="321F_N1XVPpt7X5Ty1k3-207" value="&lt;font face=&quot;Lucida Console&quot;&gt;&lt;span style=&quot;font-size: 20px;&quot;&gt;Pharmacy&lt;/span&gt;&lt;/font&gt;" style="rounded=0;whiteSpace=wrap;html=1;" vertex="1" parent="1">
          <mxGeometry x="-1505" y="555" width="210" height="60" as="geometry" />
        </mxCell>
        <mxCell id="321F_N1XVPpt7X5Ty1k3-208" value="" style="endArrow=none;html=1;rounded=0;entryX=0.25;entryY=1;entryDx=0;entryDy=0;" edge="1" parent="1">
          <mxGeometry width="50" height="50" relative="1" as="geometry">
            <mxPoint x="-1515" y="715" as="sourcePoint" />
            <mxPoint x="-1470" y="615" as="targetPoint" />
          </mxGeometry>
        </mxCell>
        <mxCell id="321F_N1XVPpt7X5Ty1k3-210" value="&lt;span data-end=&quot;414&quot; data-start=&quot;401&quot;&gt;&lt;font style=&quot;&quot; face=&quot;Lucida Console&quot;&gt;Drug Name&lt;/font&gt;&lt;/span&gt;" style="ellipse;whiteSpace=wrap;html=1;align=center;" vertex="1" parent="1">
          <mxGeometry x="-1565" y="707.5" width="100" height="40" as="geometry" />
        </mxCell>
        <mxCell id="321F_N1XVPpt7X5Ty1k3-211" value="&lt;font face=&quot;Lucida Console&quot;&gt;&lt;span style=&quot;font-size: 13px;&quot;&gt;Drug Cate&lt;/span&gt;&lt;/font&gt;&lt;span style=&quot;font-size: 13px; font-family: &amp;quot;Lucida Console&amp;quot;; background-color: transparent; color: light-dark(rgb(0, 0, 0), rgb(255, 255, 255));&quot;&gt;gory&lt;/span&gt;" style="ellipse;whiteSpace=wrap;html=1;align=center;" vertex="1" parent="1">
          <mxGeometry x="-1465" y="725" width="130" height="40" as="geometry" />
        </mxCell>
        <mxCell id="321F_N1XVPpt7X5Ty1k3-212" value="" style="endArrow=none;html=1;rounded=0;entryX=0.547;entryY=0.992;entryDx=0;entryDy=0;entryPerimeter=0;" edge="1" parent="1" target="321F_N1XVPpt7X5Ty1k3-207">
          <mxGeometry width="50" height="50" relative="1" as="geometry">
            <mxPoint x="-1405" y="725" as="sourcePoint" />
            <mxPoint x="-1415" y="615" as="targetPoint" />
          </mxGeometry>
        </mxCell>
        <mxCell id="321F_N1XVPpt7X5Ty1k3-213" value="&lt;span style=&quot;font-family: &amp;quot;Lucida Console&amp;quot;;&quot;&gt;Medicine_ID&lt;/span&gt;" style="ellipse;whiteSpace=wrap;html=1;align=center;fontStyle=4;" vertex="1" parent="1">
          <mxGeometry x="-1720" y="622.5" width="100" height="40" as="geometry" />
        </mxCell>
        <mxCell id="321F_N1XVPpt7X5Ty1k3-214" value="" style="endArrow=none;html=1;rounded=0;exitX=0.279;exitY=-0.026;exitDx=0;exitDy=0;exitPerimeter=0;entryX=1;entryY=0.5;entryDx=0;entryDy=0;" edge="1" parent="1" target="321F_N1XVPpt7X5Ty1k3-213">
          <mxGeometry width="50" height="50" relative="1" as="geometry">
            <mxPoint x="-1505" y="585.73" as="sourcePoint" />
            <mxPoint x="-1560" y="480" as="targetPoint" />
          </mxGeometry>
        </mxCell>
        <mxCell id="321F_N1XVPpt7X5Ty1k3-215" value="&lt;font face=&quot;Lucida Console&quot;&gt;Stock Quantity&lt;/font&gt;" style="ellipse;whiteSpace=wrap;html=1;align=center;" vertex="1" parent="1">
          <mxGeometry x="-1720" y="722.5" width="120" height="40" as="geometry" />
        </mxCell>
        <mxCell id="321F_N1XVPpt7X5Ty1k3-216" value="" style="endArrow=none;html=1;rounded=0;entryX=0.07;entryY=1.012;entryDx=0;entryDy=0;entryPerimeter=0;exitX=1;exitY=0;exitDx=0;exitDy=0;" edge="1" parent="1" source="321F_N1XVPpt7X5Ty1k3-215" target="321F_N1XVPpt7X5Ty1k3-207">
          <mxGeometry width="50" height="50" relative="1" as="geometry">
            <mxPoint x="-1425" y="885" as="sourcePoint" />
            <mxPoint x="-1375" y="835" as="targetPoint" />
          </mxGeometry>
        </mxCell>
        <mxCell id="321F_N1XVPpt7X5Ty1k3-217" value="&lt;font face=&quot;Lucida Console&quot;&gt;HAS&lt;/font&gt;" style="shape=rhombus;perimeter=rhombusPerimeter;whiteSpace=wrap;html=1;align=center;" vertex="1" parent="1">
          <mxGeometry x="-709.9999999999995" y="1032.5" width="120" height="60" as="geometry" />
        </mxCell>
        <mxCell id="321F_N1XVPpt7X5Ty1k3-218" value="&lt;font face=&quot;Lucida Console&quot;&gt;1&lt;/font&gt;" style="text;html=1;align=center;verticalAlign=middle;whiteSpace=wrap;rounded=0;container=1;" vertex="1" parent="1">
          <mxGeometry x="-669.9999999999995" y="1122.5" width="60" height="30" as="geometry" />
        </mxCell>
        <mxCell id="321F_N1XVPpt7X5Ty1k3-219" value="" style="endArrow=none;html=1;rounded=0;exitX=0.5;exitY=1;exitDx=0;exitDy=0;" edge="1" parent="1" source="321F_N1XVPpt7X5Ty1k3-217">
          <mxGeometry relative="1" as="geometry">
            <mxPoint x="-644.9999999999995" y="1093.4523809523807" as="sourcePoint" />
            <mxPoint x="-710" y="1250" as="targetPoint" />
          </mxGeometry>
        </mxCell>
        <mxCell id="321F_N1XVPpt7X5Ty1k3-220" value="&lt;font face=&quot;Lucida Console&quot;&gt;1&lt;/font&gt;" style="text;strokeColor=none;fillColor=none;spacingLeft=4;spacingRight=4;overflow=hidden;rotatable=0;points=[[0,0.5],[1,0.5]];portConstraint=eastwest;fontSize=12;whiteSpace=wrap;html=1;" vertex="1" parent="1">
          <mxGeometry x="-639.9999999999995" y="985" width="40" height="30" as="geometry" />
        </mxCell>
        <mxCell id="321F_N1XVPpt7X5Ty1k3-221" value="" style="endArrow=none;html=1;rounded=0;exitX=0.5;exitY=0;exitDx=0;exitDy=0;entryX=0;entryY=0.75;entryDx=0;entryDy=0;" edge="1" source="321F_N1XVPpt7X5Ty1k3-217" parent="1" target="321F_N1XVPpt7X5Ty1k3-56">
          <mxGeometry relative="1" as="geometry">
            <mxPoint x="-819.9999999999995" y="950" as="sourcePoint" />
            <mxPoint x="-610" y="900" as="targetPoint" />
          </mxGeometry>
        </mxCell>
        <mxCell id="321F_N1XVPpt7X5Ty1k3-223" value="&lt;font face=&quot;Lucida Console&quot;&gt;GENERATES&lt;/font&gt;" style="shape=rhombus;perimeter=rhombusPerimeter;whiteSpace=wrap;html=1;align=center;" vertex="1" parent="1">
          <mxGeometry x="-1139.9999999999995" y="472.5" width="120" height="60" as="geometry" />
        </mxCell>
        <mxCell id="321F_N1XVPpt7X5Ty1k3-224" value="&lt;font face=&quot;Lucida Console&quot;&gt;1&lt;/font&gt;" style="text;html=1;align=center;verticalAlign=middle;whiteSpace=wrap;rounded=0;container=1;" vertex="1" parent="1">
          <mxGeometry x="-1189.9999999999995" y="510" width="60" height="30" as="geometry" />
        </mxCell>
        <mxCell id="321F_N1XVPpt7X5Ty1k3-225" value="" style="endArrow=none;html=1;rounded=0;entryX=1;entryY=0;entryDx=0;entryDy=0;exitX=0;exitY=0.5;exitDx=0;exitDy=0;" edge="1" parent="1" source="321F_N1XVPpt7X5Ty1k3-223" target="321F_N1XVPpt7X5Ty1k3-207">
          <mxGeometry relative="1" as="geometry">
            <mxPoint x="-1074.9999999999995" y="533.4523809523807" as="sourcePoint" />
            <mxPoint x="-1099.9999999999995" y="622.5" as="targetPoint" />
          </mxGeometry>
        </mxCell>
        <mxCell id="321F_N1XVPpt7X5Ty1k3-226" value="&lt;font face=&quot;Lucida Console&quot;&gt;N&lt;/font&gt;" style="text;strokeColor=none;fillColor=none;spacingLeft=4;spacingRight=4;overflow=hidden;rotatable=0;points=[[0,0.5],[1,0.5]];portConstraint=eastwest;fontSize=12;whiteSpace=wrap;html=1;" vertex="1" parent="1">
          <mxGeometry x="-1010.4999999999995" y="455" width="40" height="30" as="geometry" />
        </mxCell>
        <mxCell id="321F_N1XVPpt7X5Ty1k3-227" value="" style="endArrow=none;html=1;rounded=0;exitX=1;exitY=0.5;exitDx=0;exitDy=0;entryX=0;entryY=1;entryDx=0;entryDy=0;" edge="1" source="321F_N1XVPpt7X5Ty1k3-223" parent="1" target="321F_N1XVPpt7X5Ty1k3-36">
          <mxGeometry relative="1" as="geometry">
            <mxPoint x="-1249.9999999999995" y="390" as="sourcePoint" />
            <mxPoint x="-1089.9999999999995" y="390" as="targetPoint" />
          </mxGeometry>
        </mxCell>
        <mxCell id="321F_N1XVPpt7X5Ty1k3-228" value="&lt;font face=&quot;Lucida Console&quot;&gt;STOCKS&lt;/font&gt;" style="shape=rhombus;perimeter=rhombusPerimeter;whiteSpace=wrap;html=1;align=center;" vertex="1" parent="1">
          <mxGeometry x="-1249.9999999999995" y="682.5" width="120" height="60" as="geometry" />
        </mxCell>
        <mxCell id="321F_N1XVPpt7X5Ty1k3-229" value="&lt;font face=&quot;Lucida Console&quot;&gt;N&lt;/font&gt;" style="text;html=1;align=center;verticalAlign=middle;whiteSpace=wrap;rounded=0;container=1;" vertex="1" parent="1">
          <mxGeometry x="-1079.9999999999995" y="702.5" width="60" height="30" as="geometry" />
        </mxCell>
        <mxCell id="321F_N1XVPpt7X5Ty1k3-230" value="" style="endArrow=none;html=1;rounded=0;entryX=0;entryY=0.5;entryDx=0;entryDy=0;exitX=1;exitY=0.5;exitDx=0;exitDy=0;" edge="1" parent="1" source="321F_N1XVPpt7X5Ty1k3-228" target="321F_N1XVPpt7X5Ty1k3-25">
          <mxGeometry relative="1" as="geometry">
            <mxPoint x="-1184.9999999999995" y="743.4523809523807" as="sourcePoint" />
            <mxPoint x="-1209.9999999999995" y="832.5" as="targetPoint" />
          </mxGeometry>
        </mxCell>
        <mxCell id="321F_N1XVPpt7X5Ty1k3-231" value="&lt;font face=&quot;Lucida Console&quot;&gt;1&lt;/font&gt;" style="text;strokeColor=none;fillColor=none;spacingLeft=4;spacingRight=4;overflow=hidden;rotatable=0;points=[[0,0.5],[1,0.5]];portConstraint=eastwest;fontSize=12;whiteSpace=wrap;html=1;" vertex="1" parent="1">
          <mxGeometry x="-1259.9999999999995" y="652.5" width="40" height="30" as="geometry" />
        </mxCell>
        <mxCell id="321F_N1XVPpt7X5Ty1k3-232" value="" style="endArrow=none;html=1;rounded=0;exitX=0;exitY=0.5;exitDx=0;exitDy=0;entryX=1;entryY=1;entryDx=0;entryDy=0;" edge="1" source="321F_N1XVPpt7X5Ty1k3-228" parent="1" target="321F_N1XVPpt7X5Ty1k3-207">
          <mxGeometry relative="1" as="geometry">
            <mxPoint x="-1359.9999999999995" y="600" as="sourcePoint" />
            <mxPoint x="-1199.9999999999995" y="600" as="targetPoint" />
          </mxGeometry>
        </mxCell>
        <mxCell id="321F_N1XVPpt7X5Ty1k3-236" value="&lt;font face=&quot;Lucida Console&quot;&gt;WORKS FOR&lt;/font&gt;" style="shape=rhombus;perimeter=rhombusPerimeter;whiteSpace=wrap;html=1;align=center;" vertex="1" parent="1">
          <mxGeometry x="660.0000000000005" y="922.5" width="120" height="60" as="geometry" />
        </mxCell>
        <mxCell id="321F_N1XVPpt7X5Ty1k3-237" value="&lt;font face=&quot;Lucida Console&quot;&gt;1&lt;/font&gt;" style="text;html=1;align=center;verticalAlign=middle;whiteSpace=wrap;rounded=0;container=1;" vertex="1" parent="1">
          <mxGeometry x="825.0000000000005" y="960" width="60" height="30" as="geometry" />
        </mxCell>
        <mxCell id="321F_N1XVPpt7X5Ty1k3-238" value="" style="endArrow=none;html=1;rounded=0;exitX=1;exitY=0.5;exitDx=0;exitDy=0;" edge="1" parent="1" source="321F_N1XVPpt7X5Ty1k3-236">
          <mxGeometry relative="1" as="geometry">
            <mxPoint x="815.0000000000005" y="950.9523809523807" as="sourcePoint" />
            <mxPoint x="1000" y="980" as="targetPoint" />
          </mxGeometry>
        </mxCell>
        <mxCell id="321F_N1XVPpt7X5Ty1k3-239" value="&lt;font face=&quot;Lucida Console&quot;&gt;N&lt;/font&gt;" style="text;strokeColor=none;fillColor=none;spacingLeft=4;spacingRight=4;overflow=hidden;rotatable=0;points=[[0,0.5],[1,0.5]];portConstraint=eastwest;fontSize=12;whiteSpace=wrap;html=1;" vertex="1" parent="1">
          <mxGeometry x="560.0000000000005" y="890" width="40" height="30" as="geometry" />
        </mxCell>
        <mxCell id="321F_N1XVPpt7X5Ty1k3-240" value="" style="endArrow=none;html=1;rounded=0;exitX=0;exitY=0.5;exitDx=0;exitDy=0;entryX=1;entryY=0.25;entryDx=0;entryDy=0;" edge="1" source="321F_N1XVPpt7X5Ty1k3-236" parent="1" target="321F_N1XVPpt7X5Ty1k3-83">
          <mxGeometry relative="1" as="geometry">
            <mxPoint x="640.0000000000005" y="807.5" as="sourcePoint" />
            <mxPoint x="800.0000000000005" y="807.5" as="targetPoint" />
          </mxGeometry>
        </mxCell>
        <mxCell id="321F_N1XVPpt7X5Ty1k3-241" value="&lt;font face=&quot;Lucida Console&quot;&gt;&lt;span style=&quot;font-size: 20px;&quot;&gt;Department&lt;/span&gt;&lt;/font&gt;" style="whiteSpace=wrap;html=1;align=center;" vertex="1" parent="1">
          <mxGeometry x="1000" y="935" width="190" height="70" as="geometry" />
        </mxCell>
        <mxCell id="321F_N1XVPpt7X5Ty1k3-242" style="edgeStyle=orthogonalEdgeStyle;rounded=0;orthogonalLoop=1;jettySize=auto;html=1;exitX=0.5;exitY=1;exitDx=0;exitDy=0;" edge="1" source="321F_N1XVPpt7X5Ty1k3-241" target="321F_N1XVPpt7X5Ty1k3-241" parent="1">
          <mxGeometry relative="1" as="geometry" />
        </mxCell>
        <mxCell id="321F_N1XVPpt7X5Ty1k3-244" value="&lt;font face=&quot;Lucida Console&quot;&gt;department_name&lt;/font&gt;" style="ellipse;whiteSpace=wrap;html=1;align=center;" vertex="1" parent="1">
          <mxGeometry x="1050" y="1085" width="110" height="35" as="geometry" />
        </mxCell>
        <mxCell id="321F_N1XVPpt7X5Ty1k3-245" value="&lt;font face=&quot;Lucida Console&quot;&gt;&lt;u&gt;department_id&lt;/u&gt;&lt;/font&gt;" style="ellipse;whiteSpace=wrap;html=1;align=center;" vertex="1" parent="1">
          <mxGeometry x="930" y="1080" width="100" height="35" as="geometry" />
        </mxCell>
        <mxCell id="321F_N1XVPpt7X5Ty1k3-246" value="" style="endArrow=none;html=1;rounded=0;exitX=0.6;exitY=-0.029;exitDx=0;exitDy=0;exitPerimeter=0;entryX=0.402;entryY=0.936;entryDx=0;entryDy=0;entryPerimeter=0;" edge="1" source="321F_N1XVPpt7X5Ty1k3-245" target="321F_N1XVPpt7X5Ty1k3-241" parent="1">
          <mxGeometry relative="1" as="geometry">
            <mxPoint x="800" y="1235" as="sourcePoint" />
            <mxPoint x="1030" y="995" as="targetPoint" />
          </mxGeometry>
        </mxCell>
        <mxCell id="321F_N1XVPpt7X5Ty1k3-247" value="" style="endArrow=none;html=1;rounded=0;entryX=0.673;entryY=1.075;entryDx=0;entryDy=0;entryPerimeter=0;exitX=0.4;exitY=0;exitDx=0;exitDy=0;exitPerimeter=0;" edge="1" source="321F_N1XVPpt7X5Ty1k3-244" target="321F_N1XVPpt7X5Ty1k3-241" parent="1">
          <mxGeometry relative="1" as="geometry">
            <mxPoint x="1090" y="1075" as="sourcePoint" />
            <mxPoint x="960" y="1235" as="targetPoint" />
          </mxGeometry>
        </mxCell>
        <mxCell id="321F_N1XVPpt7X5Ty1k3-248" value="" style="endArrow=none;html=1;rounded=0;entryX=0.88;entryY=1.05;entryDx=0;entryDy=0;entryPerimeter=0;" edge="1" target="321F_N1XVPpt7X5Ty1k3-241" parent="1">
          <mxGeometry relative="1" as="geometry">
            <mxPoint x="1210.4848165748854" y="1085.3198077046547" as="sourcePoint" />
            <mxPoint x="1180" y="1045" as="targetPoint" />
          </mxGeometry>
        </mxCell>
        <mxCell id="321F_N1XVPpt7X5Ty1k3-249" value="" style="endArrow=none;html=1;rounded=0;exitX=0.6;exitY=0;exitDx=0;exitDy=0;exitPerimeter=0;entryX=0.158;entryY=1.025;entryDx=0;entryDy=0;entryPerimeter=0;" edge="1" target="321F_N1XVPpt7X5Ty1k3-241" parent="1">
          <mxGeometry relative="1" as="geometry">
            <mxPoint x="900" y="1085" as="sourcePoint" />
            <mxPoint x="1010" y="977" as="targetPoint" />
          </mxGeometry>
        </mxCell>
        <mxCell id="321F_N1XVPpt7X5Ty1k3-251" value="&lt;font face=&quot;Lucida Console&quot;&gt;description&lt;/font&gt;" style="ellipse;whiteSpace=wrap;html=1;align=center;" vertex="1" parent="1">
          <mxGeometry x="1190" y="1080" width="100" height="40" as="geometry" />
        </mxCell>
        <mxCell id="321F_N1XVPpt7X5Ty1k3-252" value="&lt;font face=&quot;Lucida Console&quot;&gt;location&lt;/font&gt;" style="ellipse;whiteSpace=wrap;html=1;align=center;" vertex="1" parent="1">
          <mxGeometry x="820" y="1080" width="100" height="40" as="geometry" />
        </mxCell>
        <mxCell id="321F_N1XVPpt7X5Ty1k3-253" value="" style="endArrow=none;html=1;rounded=0;exitX=1;exitY=0;exitDx=0;exitDy=0;entryX=0;entryY=0.75;entryDx=0;entryDy=0;" edge="1" parent="1" source="321F_N1XVPpt7X5Ty1k3-87" target="321F_N1XVPpt7X5Ty1k3-83">
          <mxGeometry relative="1" as="geometry">
            <mxPoint x="160" y="915" as="sourcePoint" />
            <mxPoint x="295" y="915.4100000000001" as="targetPoint" />
          </mxGeometry>
        </mxCell>
      </root>
    </mxGraphModel>
  </diagram>
</mxfile>
